<svg width="35" height="38" viewBox="0 0 35 38" fill="none" xmlns="http://www.w3.org/2000/svg">
<path d="M22.0225 30.1766C26.0255 30.0638 34.4273 30.2161 34.4273 31.7794C34.4273 32.9878 30.9355 33.0942 30.821 33.2975" stroke="#002E6A" stroke-width="0.21189"/>
<path d="M29.4028 35.0909L29.377 33.5L30.0147 35.6615L29.9357 36.8636L29.4028 35.0909Z" fill="#002E6A"/>
<rect x="6.98047" y="30.4639" width="14.967" height="1.29805" fill="#002E6A"/>
<rect x="6.72168" y="12.2236" width="15.4185" height="18.3984" rx="0.585813" fill="white"/>
<path d="M7.76665 30.2278C7.74791 30.2278 7.73352 30.2224 7.72348 30.2117C7.71343 30.201 7.70841 30.1863 7.70841 30.1675V29.564C7.70841 29.5446 7.71377 29.5299 7.72448 29.5198C7.73519 29.5091 7.74992 29.5038 7.76866 29.5038C7.7854 29.5038 7.79845 29.5071 7.80782 29.5138C7.81786 29.5198 7.8269 29.5306 7.83493 29.546L8.08296 30.0048H8.05082L8.29884 29.546C8.30688 29.5306 8.31558 29.5198 8.32495 29.5138C8.33432 29.5071 8.34738 29.5038 8.36411 29.5038C8.38286 29.5038 8.39725 29.5091 8.40729 29.5198C8.41733 29.5299 8.42235 29.5446 8.42235 29.564V30.1675C8.42235 30.1863 8.41733 30.201 8.40729 30.2117C8.39792 30.2224 8.38353 30.2278 8.36411 30.2278C8.34537 30.2278 8.33098 30.2224 8.32093 30.2117C8.31089 30.201 8.30587 30.1863 8.30587 30.1675V29.7026H8.32796L8.1171 30.0872C8.1104 30.0986 8.10337 30.1069 8.09601 30.1123C8.08865 30.1176 8.0786 30.1203 8.06589 30.1203C8.05317 30.1203 8.04279 30.1176 8.03476 30.1123C8.02672 30.1063 8.0197 30.0979 8.01367 30.0872L7.80079 29.7016H7.82489V30.1675C7.82489 30.1863 7.81987 30.201 7.80983 30.2117C7.80046 30.2224 7.78607 30.2278 7.76665 30.2278ZM8.58519 30.2278C8.56912 30.2278 8.55607 30.2241 8.54603 30.2167C8.53665 30.2094 8.53096 30.1996 8.52895 30.1876C8.52695 30.1749 8.52929 30.1608 8.53598 30.1454L8.80107 29.558C8.80978 29.5386 8.82015 29.5249 8.8322 29.5168C8.84492 29.5081 8.85931 29.5038 8.87538 29.5038C8.89078 29.5038 8.9045 29.5081 8.91655 29.5168C8.92927 29.5249 8.93998 29.5386 8.94868 29.558L9.21478 30.1454C9.22214 30.1608 9.22482 30.1749 9.22281 30.1876C9.2208 30.2003 9.21511 30.2104 9.20574 30.2177C9.19637 30.2244 9.18398 30.2278 9.16859 30.2278C9.14984 30.2278 9.13512 30.2234 9.12441 30.2147C9.11436 30.2053 9.10533 30.1913 9.09729 30.1725L9.03203 30.0209L9.08625 30.0561H8.6625L8.71673 30.0209L8.65246 30.1725C8.64376 30.1919 8.63472 30.206 8.62535 30.2147C8.61598 30.2234 8.60259 30.2278 8.58519 30.2278ZM8.87337 29.6514L8.73279 29.9858L8.70669 29.9536H9.04207L9.01696 29.9858L8.87538 29.6514H8.87337ZM9.39365 30.2197C9.37156 30.2197 9.35449 30.214 9.34244 30.2027C9.33106 30.1906 9.32537 30.1735 9.32537 30.1514V29.5801C9.32537 29.558 9.33106 29.5413 9.34244 29.5299C9.35449 29.5178 9.37156 29.5118 9.39365 29.5118H9.58846C9.70694 29.5118 9.79832 29.5423 9.86258 29.6032C9.92752 29.6641 9.95998 29.7515 9.95998 29.8653C9.95998 29.9222 9.95162 29.9727 9.93488 30.0169C9.91882 30.0604 9.89472 30.0972 9.86258 30.1273C9.83112 30.1575 9.79229 30.1806 9.7461 30.1966C9.70058 30.212 9.64803 30.2197 9.58846 30.2197H9.39365ZM9.4539 30.1133H9.58042C9.62193 30.1133 9.65774 30.1083 9.68787 30.0982C9.71866 30.0875 9.7441 30.0721 9.76418 30.052C9.78493 30.0313 9.80033 30.0055 9.81037 29.9747C9.82041 29.9433 9.82543 29.9068 9.82543 29.8653C9.82543 29.7823 9.80501 29.7203 9.76418 29.6795C9.72334 29.6387 9.66209 29.6183 9.58042 29.6183H9.4539V30.1133Z" fill="#002E6A"/>
<rect x="8.33594" y="14.5039" width="12.0775" height="9.1992" rx="1.08438" fill="#002E6A"/>
<path fill-rule="evenodd" clip-rule="evenodd" d="M18.2773 26.1416C18.1741 26.1416 18.0904 26.2253 18.0904 26.3286V26.4688H14.1459C14.0427 26.4688 13.959 26.5525 13.959 26.6558V26.9591C13.959 27.0623 14.0427 27.146 14.1459 27.146H18.0904V27.4446C18.0904 27.5478 18.1741 27.6315 18.2773 27.6315H20.6237C20.7269 27.6315 20.8106 27.5478 20.8106 27.4446V26.3286C20.8106 26.2253 20.7269 26.1416 20.6237 26.1416H18.2773Z" fill="#002E6A"/>
<path d="M0.085946 35.8482L1.50845 31.741C1.53453 31.6657 1.60545 31.6152 1.68512 31.6152H27.1404C27.2317 31.6152 27.3096 31.6811 27.3248 31.7711L28.0179 35.8782C28.0372 35.9923 27.9493 36.0963 27.8336 36.0963H0.262611C0.13408 36.0963 0.0438811 35.9696 0.085946 35.8482Z" fill="white"/>
<path d="M0.107422 35.9375H28.0211V36.7382C28.0211 37.0066 27.8034 37.2243 27.535 37.2243H0.593521C0.325055 37.2243 0.107422 37.0066 0.107422 36.7382V35.9375Z" fill="#002E6A"/>
<path d="M29.918 35.5547H33.9701V36.7674C33.9701 36.8706 33.8864 36.9543 33.7832 36.9543H30.1049C30.0017 36.9543 29.918 36.8706 29.918 36.7674V35.5547Z" fill="#002E6A"/>
<path d="M29.9071 35.5611L29.3842 33.5506C29.3657 33.4795 29.4193 33.4102 29.4927 33.4102H33.2543C33.3038 33.4102 33.3475 33.4426 33.3617 33.49L33.9659 35.5006C33.9876 35.5726 33.9337 35.6451 33.8585 35.6451H30.0157C29.9646 35.6451 29.92 35.6105 29.9071 35.5611Z" fill="white"/>
<path d="M30.2578 33.6562L30.171 33.3542C30.1573 33.3064 30.1931 33.2588 30.2429 33.2588H32.5687C32.6002 33.2588 32.6283 33.2785 32.639 33.3081L32.7484 33.61C32.7661 33.6588 32.73 33.7103 32.6781 33.7103H30.3297C30.2963 33.7103 30.267 33.6882 30.2578 33.6562Z" fill="#002E6A"/>
<path d="M3.76776 4.85405C5.07142 4.66216 8.2827 6.33833 10.0887 7.13409C13.0779 7.1134 19.0249 7.01557 19.2596 7.01557C19.5531 7.01557 23.2554 5.01207 24.5986 4.94999C25.9418 4.88791 26.8461 6.04674 26.5344 8.07094C26.1224 10.746 21.2462 13.7823 14.6036 13.8614C7.961 13.9404 3.1808 10.7235 2.29476 8.05401C1.78397 6.51509 2.71234 5.00939 3.76776 4.85405Z" fill="#002E6A"/>
<path d="M14.4564 0C13.2769 0 12.293 0.197529 11.9111 0.355552L14.3323 1.72697C15.3651 1.27547 17.3889 0.360067 17.2218 0.310402C17.013 0.248322 15.7753 0 14.4564 0Z" fill="#002E6A"/>
<path d="M11.1896 0.00488281C9.57364 0.00488286 9.56425 5.65351 9.28026 8.03182C9.27772 8.05306 9.28422 8.07306 9.29866 8.08884C10.1716 9.04256 12.3424 9.49278 14.4855 9.5935C16.647 9.69508 19.7172 8.68925 19.7172 8.03019C19.7172 7.42068 19.1287 0.308456 17.9959 0.0669629C16.5398 -0.24344 15.5644 1.15619 14.4573 1.15619C13.5091 1.15619 12.324 0.00488278 11.1896 0.00488281Z" fill="white"/>
<rect x="10.7969" y="16.9414" width="1.80598" height="1.80598" rx="0.361459" fill="white"/>
<rect x="16.3271" y="16.9414" width="1.80598" height="1.80598" rx="0.361459" fill="white"/>
</svg>
