<svg width="218" height="235" viewBox="0 0 218 235" fill="none" xmlns="http://www.w3.org/2000/svg">
<path d="M138.809 190.213C164.042 189.502 217 190.462 217 200.316C217 207.933 194.991 208.603 194.269 209.885" stroke="#613A05" stroke-width="1.20951"/>
<path d="M185.324 221.193L185.161 211.166L189.181 224.79L188.683 232.367L185.324 221.193Z" fill="#613A05"/>
<rect x="44.0048" y="192.027" width="94.3416" height="8.18196" fill="#613A05"/>
<rect x="42.3685" y="77.0525" width="97.1875" height="115.97" rx="3.34393" fill="#D6A35C"/>
<rect x="52.5424" y="91.4243" width="76.1278" height="57.9852" rx="6.18983" fill="#613A05"/>
<path fill-rule="evenodd" clip-rule="evenodd" d="M115.082 164.777C114.493 164.777 114.015 165.255 114.015 165.845V166.841H89.0419C88.4525 166.841 87.9747 167.319 87.9747 167.908V170.042C87.9747 170.632 88.4525 171.11 89.0419 171.11H114.015V173.102C114.015 173.691 114.493 174.169 115.082 174.169H130.094C130.684 174.169 131.161 173.691 131.161 173.102V165.845C131.161 165.255 130.684 164.777 130.094 164.777H115.082Z" fill="#613A05"/>
<path d="M0.490596 226.113L9.53412 200.002C9.68296 199.572 10.0878 199.284 10.5426 199.284H171.168C171.689 199.284 172.134 199.66 172.22 200.174L176.627 226.285C176.737 226.936 176.235 227.529 175.575 227.529H1.49904C0.765356 227.529 0.250481 226.806 0.490596 226.113Z" fill="#D6A35C"/>
<path d="M0.675903 226.533H176.624V231.87C176.624 233.402 175.381 234.644 173.849 234.644H3.45066C1.9182 234.644 0.675903 233.402 0.675903 231.87V226.533Z" fill="#613A05"/>
<path d="M188.577 224.115H214.119V231.87C214.119 232.459 213.641 232.937 213.051 232.937H189.644C189.054 232.937 188.577 232.459 188.577 231.87V224.115Z" fill="#613A05"/>
<path d="M188.524 224.204L185.193 211.398C185.087 210.992 185.393 210.596 185.813 210.596H209.659C209.941 210.596 210.191 210.782 210.272 211.052L214.12 223.859C214.244 224.27 213.936 224.683 213.507 224.683H189.144C188.852 224.683 188.597 224.486 188.524 224.204Z" fill="#D6A35C"/>
<path d="M190.728 212.173L190.155 210.181C190.077 209.908 190.282 209.636 190.566 209.636H205.316C205.496 209.636 205.656 209.748 205.718 209.917L206.44 211.909C206.541 212.188 206.335 212.482 206.038 212.482H191.138C190.948 212.482 190.781 212.356 190.728 212.173Z" fill="#613A05"/>
<path d="M23.7475 30.5932C31.9648 29.3837 52.2065 39.9491 63.5901 44.965C82.4323 44.8346 119.917 44.218 121.397 44.218C123.247 44.218 146.584 31.5893 155.05 31.198C163.517 30.8067 169.217 38.1111 167.252 50.8703C164.655 67.7322 133.919 86.8709 92.049 87.3689C50.1787 87.867 20.0477 67.5899 14.4627 50.7635C11.2431 41.0633 17.0949 31.5724 23.7475 30.5932Z" fill="#613A05"/>
<path d="M91.1233 0C83.6884 0 77.4867 1.24508 75.0796 2.24115L90.3407 10.8856C96.8507 8.03967 109.607 2.26961 108.554 1.95656C107.238 1.56524 99.4367 0 91.1233 0Z" fill="#613A05"/>
<path d="M70.5265 0.0351562C60.3365 0.0351566 60.2816 35.6707 58.4893 50.6506C58.4748 50.7718 58.5118 50.8858 58.5941 50.976C64.0879 56.9976 77.7823 59.8396 91.3016 60.475C104.926 61.1153 124.278 54.7752 124.278 50.621C124.278 46.7791 120.569 1.94866 113.428 0.426465C104.25 -1.53009 98.1025 7.29219 91.1237 7.29219C85.1473 7.29219 77.6769 0.035156 70.5265 0.0351562Z" fill="#D6A35C"/>
<rect x="68.0529" y="106.792" width="11.3836" height="11.3836" rx="2.06328" fill="#D6A35C"/>
<rect x="102.914" y="106.792" width="11.3836" height="11.3836" rx="2.06328" fill="#D6A35C"/>
<path d="M46.5555 188.462C46.4485 188.462 46.3664 188.432 46.3091 188.371C46.2518 188.31 46.2231 188.225 46.2231 188.118V184.674C46.2231 184.563 46.2537 184.479 46.3148 184.421C46.3759 184.36 46.46 184.33 46.567 184.33C46.6625 184.33 46.737 184.349 46.7905 184.387C46.8479 184.421 46.8994 184.483 46.9453 184.57L48.361 187.19H48.1776L49.5934 184.57C49.6392 184.483 49.6889 184.421 49.7424 184.387C49.7959 184.349 49.8704 184.33 49.9659 184.33C50.0729 184.33 50.1551 184.36 50.2124 184.421C50.2697 184.479 50.2984 184.563 50.2984 184.674V188.118C50.2984 188.225 50.2697 188.31 50.2124 188.371C50.1589 188.432 50.0768 188.462 49.9659 188.462C49.859 188.462 49.7768 188.432 49.7195 188.371C49.6622 188.31 49.6335 188.225 49.6335 188.118V185.465H49.7596L48.5559 187.66C48.5177 187.725 48.4776 187.773 48.4356 187.803C48.3935 187.834 48.3362 187.849 48.2636 187.849C48.191 187.849 48.1318 187.834 48.0859 187.803C48.0401 187.769 47.9999 187.721 47.9656 187.66L46.7504 185.459H46.888V188.118C46.888 188.225 46.8593 188.31 46.802 188.371C46.7485 188.432 46.6663 188.462 46.5555 188.462ZM51.2279 188.462C51.1362 188.462 51.0617 188.441 51.0043 188.399C50.9508 188.357 50.9184 188.302 50.9069 188.233C50.8954 188.16 50.9088 188.08 50.947 187.992L52.4602 184.639C52.5099 184.528 52.5691 184.45 52.6379 184.404C52.7105 184.355 52.7927 184.33 52.8844 184.33C52.9723 184.33 53.0506 184.355 53.1194 184.404C53.192 184.45 53.2531 184.528 53.3028 184.639L54.8217 187.992C54.8637 188.08 54.879 188.16 54.8676 188.233C54.8561 188.306 54.8236 188.363 54.7701 188.405C54.7166 188.443 54.6459 188.462 54.558 188.462C54.4511 188.462 54.367 188.438 54.3058 188.388C54.2485 188.334 54.1969 188.254 54.1511 188.147L53.7785 187.282L54.088 187.482H51.6692L51.9787 187.282L51.6119 188.147C51.5622 188.258 51.5106 188.338 51.4572 188.388C51.4037 188.438 51.3272 188.462 51.2279 188.462ZM52.8729 185.172L52.0705 187.081L51.9214 186.898H53.8358L53.6925 187.081L52.8844 185.172H52.8729ZM55.8428 188.417C55.7167 188.417 55.6192 188.384 55.5504 188.319C55.4855 188.25 55.453 188.153 55.453 188.027V184.765C55.453 184.639 55.4855 184.544 55.5504 184.479C55.6192 184.41 55.7167 184.376 55.8428 184.376H56.9547C57.6311 184.376 58.1527 184.549 58.5195 184.897C58.8902 185.245 59.0755 185.744 59.0755 186.393C59.0755 186.718 59.0277 187.006 58.9322 187.259C58.8405 187.507 58.7029 187.717 58.5195 187.889C58.3399 188.061 58.1183 188.193 57.8546 188.285C57.5948 188.373 57.2948 188.417 56.9547 188.417H55.8428ZM56.1867 187.809H56.9089C57.1458 187.809 57.3502 187.78 57.5222 187.723C57.698 187.662 57.8432 187.574 57.9578 187.459C58.0763 187.341 58.1641 187.194 58.2215 187.018C58.2788 186.838 58.3074 186.63 58.3074 186.393C58.3074 185.919 58.1909 185.566 57.9578 185.333C57.7247 185.1 57.3751 184.983 56.9089 184.983H56.1867V187.809Z" fill="#613A05"/>
</svg>
